<mxfile host="65bd71144e">
    <diagram id="biUGmro8-sP_YrCl5ZqS" name="Page-1">
        <mxGraphModel dx="710" dy="189" grid="1" gridSize="1" guides="1" tooltips="1" connect="1" arrows="1" fold="1" page="1" pageScale="1" pageWidth="1100" pageHeight="850" background="#ffffff" math="0" shadow="0">
            <root>
                <mxCell id="0"/>
                <mxCell id="1" parent="0"/>
                <mxCell id="29" value="" style="rounded=0;whiteSpace=wrap;html=1;" parent="1" vertex="1">
                    <mxGeometry x="400" y="130" width="450" height="240" as="geometry"/>
                </mxCell>
                <mxCell id="30" value="&lt;b&gt;NAVBAAR&lt;/b&gt;" style="rounded=0;whiteSpace=wrap;html=1;strokeColor=#000000;" parent="1" vertex="1">
                    <mxGeometry x="400" y="130" width="450" height="30" as="geometry"/>
                </mxCell>
                <mxCell id="31" value="" style="rounded=0;whiteSpace=wrap;html=1;" parent="1" vertex="1">
                    <mxGeometry x="400" y="160" width="130" height="210" as="geometry"/>
                </mxCell>
                <mxCell id="45" style="edgeStyle=none;html=1;exitX=1;exitY=0.5;exitDx=0;exitDy=0;" parent="1" source="32" edge="1">
                    <mxGeometry relative="1" as="geometry">
                        <mxPoint x="840" y="340.25" as="targetPoint"/>
                    </mxGeometry>
                </mxCell>
                <mxCell id="56" style="edgeStyle=none;html=1;exitX=1;exitY=1;exitDx=0;exitDy=0;entryX=0;entryY=0.75;entryDx=0;entryDy=0;" parent="1" source="32" target="49" edge="1">
                    <mxGeometry relative="1" as="geometry">
                        <Array as="points">
                            <mxPoint x="940" y="290"/>
                            <mxPoint x="1030" y="340"/>
                        </Array>
                    </mxGeometry>
                </mxCell>
                <mxCell id="32" value="" style="rounded=0;whiteSpace=wrap;html=1;" parent="1" vertex="1">
                    <mxGeometry x="530" y="310" width="320" height="60" as="geometry"/>
                </mxCell>
                <mxCell id="33" value="userrrrrrr" style="rounded=1;whiteSpace=wrap;html=1;shadow=1;" parent="1" vertex="1">
                    <mxGeometry x="540" y="260" width="110" height="30" as="geometry"/>
                </mxCell>
                <mxCell id="34" value="aiiiiiii" style="rounded=1;whiteSpace=wrap;html=1;shadow=1;" parent="1" vertex="1">
                    <mxGeometry x="730" y="235" width="110" height="30" as="geometry"/>
                </mxCell>
                <mxCell id="35" value="userrrrrr" style="rounded=1;whiteSpace=wrap;html=1;shadow=1;" parent="1" vertex="1">
                    <mxGeometry x="540" y="205" width="110" height="30" as="geometry"/>
                </mxCell>
                <mxCell id="36" value="aiiiiiiiiiiiiiiii" style="rounded=1;whiteSpace=wrap;html=1;shadow=1;" parent="1" vertex="1">
                    <mxGeometry x="730" y="175" width="110" height="30" as="geometry"/>
                </mxCell>
                <mxCell id="37" value="" style="rounded=0;whiteSpace=wrap;html=1;" parent="1" vertex="1">
                    <mxGeometry x="405" y="170" width="120" height="30" as="geometry"/>
                </mxCell>
                <mxCell id="38" value="" style="rounded=0;whiteSpace=wrap;html=1;" parent="1" vertex="1">
                    <mxGeometry x="405" y="210" width="120" height="70" as="geometry"/>
                </mxCell>
                <mxCell id="39" value="" style="rounded=0;whiteSpace=wrap;html=1;" parent="1" vertex="1">
                    <mxGeometry x="405" y="290" width="120" height="70" as="geometry"/>
                </mxCell>
                <mxCell id="40" value="" style="rounded=1;whiteSpace=wrap;html=1;" parent="1" vertex="1">
                    <mxGeometry x="550" y="325" width="270" height="30" as="geometry"/>
                </mxCell>
                <mxCell id="42" value="" style="shape=flexArrow;endArrow=classic;html=1;fillColor=#000000;endWidth=21.5625;endSize=8.087499999999999;width=3.75;" parent="1" edge="1">
                    <mxGeometry width="50" height="50" relative="1" as="geometry">
                        <mxPoint x="830" y="345" as="sourcePoint"/>
                        <mxPoint x="850" y="325" as="targetPoint"/>
                    </mxGeometry>
                </mxCell>
                <mxCell id="43" value="" style="shape=datastore;whiteSpace=wrap;html=1;" parent="1" vertex="1">
                    <mxGeometry x="430" y="215" width="60" height="60" as="geometry"/>
                </mxCell>
                <mxCell id="44" style="edgeStyle=none;html=1;exitX=1;exitY=0.7;exitDx=0;exitDy=0;entryX=0.736;entryY=0.671;entryDx=0;entryDy=0;entryPerimeter=0;" parent="1" source="43" target="43" edge="1">
                    <mxGeometry relative="1" as="geometry"/>
                </mxCell>
                <mxCell id="46" value="" style="shape=actor;whiteSpace=wrap;html=1;" parent="1" vertex="1">
                    <mxGeometry x="810" y="135" width="20" height="20" as="geometry"/>
                </mxCell>
                <mxCell id="47" value="Overaall call stack" style="swimlane;startSize=20;horizontal=1;childLayout=flowLayout;flowOrientation=north;resizable=0;interRankCellSpacing=50;containerType=tree;fontSize=12;" parent="1" vertex="1">
                    <mxGeometry x="1070" y="70" width="270" height="282" as="geometry"/>
                </mxCell>
                <mxCell id="48" value="api request from fronetnd by post" style="whiteSpace=wrap;html=1;" parent="47" vertex="1">
                    <mxGeometry x="85" y="40" width="100" height="40" as="geometry"/>
                </mxCell>
                <mxCell id="49" value="Backend using JSON retrive data" style="whiteSpace=wrap;html=1;" parent="47" vertex="1">
                    <mxGeometry x="20" y="130" width="100" height="40" as="geometry"/>
                </mxCell>
                <mxCell id="50" value="" style="html=1;rounded=1;curved=0;sourcePerimeterSpacing=0;targetPerimeterSpacing=0;startSize=6;endSize=6;noEdgeStyle=1;orthogonal=1;" parent="47" source="48" target="49" edge="1">
                    <mxGeometry relative="1" as="geometry">
                        <Array as="points">
                            <mxPoint x="112.5" y="92"/>
                            <mxPoint x="70" y="118"/>
                        </Array>
                    </mxGeometry>
                </mxCell>
                <mxCell id="51" value="Save the user input into db" style="whiteSpace=wrap;html=1;" parent="47" vertex="1">
                    <mxGeometry x="150" y="130" width="100" height="40" as="geometry"/>
                </mxCell>
                <mxCell id="52" value="" style="html=1;rounded=1;curved=0;sourcePerimeterSpacing=0;targetPerimeterSpacing=0;startSize=6;endSize=6;noEdgeStyle=1;orthogonal=1;" parent="47" source="48" target="51" edge="1">
                    <mxGeometry relative="1" as="geometry">
                        <Array as="points">
                            <mxPoint x="157.5" y="92"/>
                            <mxPoint x="200" y="118"/>
                        </Array>
                    </mxGeometry>
                </mxCell>
                <mxCell id="53" value="take res from apis and send it back to UI" style="whiteSpace=wrap;html=1;" parent="47" vertex="1">
                    <mxGeometry x="85" y="221.50000000000003" width="100" height="40" as="geometry"/>
                </mxCell>
                <mxCell id="54" value="" style="html=1;rounded=1;curved=0;sourcePerimeterSpacing=0;targetPerimeterSpacing=0;startSize=6;endSize=6;noEdgeStyle=1;orthogonal=1;" parent="47" source="49" target="53" edge="1">
                    <mxGeometry relative="1" as="geometry">
                        <Array as="points">
                            <mxPoint x="70" y="182"/>
                            <mxPoint x="112.5" y="208"/>
                        </Array>
                    </mxGeometry>
                </mxCell>
                <mxCell id="55" value="" style="html=1;rounded=1;curved=0;sourcePerimeterSpacing=0;targetPerimeterSpacing=0;startSize=6;endSize=6;noEdgeStyle=1;orthogonal=1;" parent="47" source="51" target="53" edge="1">
                    <mxGeometry relative="1" as="geometry">
                        <Array as="points">
                            <mxPoint x="200" y="182"/>
                            <mxPoint x="157.5" y="208"/>
                        </Array>
                    </mxGeometry>
                </mxCell>
                <mxCell id="66" style="edgeStyle=none;html=1;exitX=1;exitY=0;exitDx=0;exitDy=0;entryX=0;entryY=1;entryDx=0;entryDy=0;" parent="1" source="57" target="31" edge="1">
                    <mxGeometry relative="1" as="geometry">
                        <Array as="points">
                            <mxPoint x="370" y="150"/>
                            <mxPoint x="330" y="260"/>
                            <mxPoint x="390" y="310"/>
                        </Array>
                    </mxGeometry>
                </mxCell>
                <mxCell id="57" value="Tech stackk that is reuqired" style="swimlane;startSize=20;horizontal=1;childLayout=flowLayout;flowOrientation=north;resizable=0;interRankCellSpacing=50;containerType=tree;fontSize=12;" parent="1" vertex="1">
                    <mxGeometry x="40" y="90" width="270" height="280" as="geometry"/>
                </mxCell>
                <mxCell id="58" value="express.js" style="whiteSpace=wrap;html=1;" parent="57" vertex="1">
                    <mxGeometry x="85" y="40" width="100" height="40" as="geometry"/>
                </mxCell>
                <mxCell id="59" value="Node.js" style="whiteSpace=wrap;html=1;" parent="57" vertex="1">
                    <mxGeometry x="20" y="130" width="100" height="40" as="geometry"/>
                </mxCell>
                <mxCell id="60" value="" style="html=1;rounded=1;curved=0;sourcePerimeterSpacing=0;targetPerimeterSpacing=0;startSize=6;endSize=6;noEdgeStyle=1;orthogonal=1;" parent="57" source="58" target="59" edge="1">
                    <mxGeometry relative="1" as="geometry">
                        <Array as="points">
                            <mxPoint x="112.5" y="92"/>
                            <mxPoint x="70" y="118"/>
                        </Array>
                    </mxGeometry>
                </mxCell>
                <mxCell id="61" value="EJS" style="whiteSpace=wrap;html=1;" parent="57" vertex="1">
                    <mxGeometry x="150" y="130" width="100" height="40" as="geometry"/>
                </mxCell>
                <mxCell id="62" value="" style="html=1;rounded=1;curved=0;sourcePerimeterSpacing=0;targetPerimeterSpacing=0;startSize=6;endSize=6;noEdgeStyle=1;orthogonal=1;" parent="57" source="58" target="61" edge="1">
                    <mxGeometry relative="1" as="geometry">
                        <Array as="points">
                            <mxPoint x="157.5" y="92"/>
                            <mxPoint x="200" y="118"/>
                        </Array>
                    </mxGeometry>
                </mxCell>
                <mxCell id="63" value="FETECH/AXIOS" style="whiteSpace=wrap;html=1;" parent="57" vertex="1">
                    <mxGeometry x="150" y="220" width="100" height="40" as="geometry"/>
                </mxCell>
                <mxCell id="64" value="" style="html=1;rounded=1;curved=0;sourcePerimeterSpacing=0;targetPerimeterSpacing=0;startSize=6;endSize=6;noEdgeStyle=1;orthogonal=1;" parent="57" source="59" target="63" edge="1">
                    <mxGeometry relative="1" as="geometry">
                        <Array as="points">
                            <mxPoint x="92.5" y="182"/>
                            <mxPoint x="177.5" y="208"/>
                        </Array>
                    </mxGeometry>
                </mxCell>
                <mxCell id="65" value="" style="html=1;rounded=1;curved=0;sourcePerimeterSpacing=0;targetPerimeterSpacing=0;startSize=6;endSize=6;noEdgeStyle=1;orthogonal=1;" parent="57" source="61" target="63" edge="1">
                    <mxGeometry relative="1" as="geometry">
                        <Array as="points">
                            <mxPoint x="200" y="182"/>
                            <mxPoint x="222.5" y="208"/>
                        </Array>
                    </mxGeometry>
                </mxCell>
                <mxCell id="67" value="" style="html=1;rounded=1;curved=0;sourcePerimeterSpacing=0;targetPerimeterSpacing=0;startSize=6;endSize=6;noEdgeStyle=1;orthogonal=1;" edge="1" target="68" source="59" parent="57">
                    <mxGeometry relative="1" as="geometry">
                        <Array as="points">
                            <mxPoint x="47.5" y="182"/>
                            <mxPoint x="70" y="208"/>
                        </Array>
                        <mxPoint x="150" y="340" as="sourcePoint"/>
                    </mxGeometry>
                </mxCell>
                <mxCell id="68" value="SQL" style="whiteSpace=wrap;html=1;" vertex="1" parent="57">
                    <mxGeometry x="20" y="220" width="100" height="40" as="geometry"/>
                </mxCell>
            </root>
        </mxGraphModel>
    </diagram>
</mxfile>